<svg xmlns="http://www.w3.org/2000/svg" viewBox="0 0 460 305" role="img" aria-labelledby="title"><title id="title">Illustration of a label with scan lines</title>
<rect x="100" y="39" width="304" height="210" rx="16" fill="#02457a" stroke="#018abe" transform="rotate(9 250 144)"/>
<rect x="48" y="38" width="314" height="224" rx="14" fill="#d6e8ee" transform="rotate(-6 205 150)"/>
<rect x="49" y="40" width="314" height="224" rx="14" fill="#fff"/>
<rect x="49" y="40" width="314" height="6" rx="3" fill="#018abe"/>
<g transform="translate(70 64) scale(.25)"><rect width="128" height="128" rx="30" fill="#001b48"/>
<path d="M31 27h46l23 23v43a8 8 0 0 1-8 8H36a8 8 0 0 1-8-8V35a8 8 0 0 1 3-8Z" fill="#d6e8ee"/>
<path d="M77 27v16a7 7 0 0 0 7 7h16Z" fill="#018abe"/>
<path d="M43 51h22v8H43zm0 12h8v8h-8zm0 12h32v8H43zm24-12h8v8h-8z" fill="#02457a"/>
<path d="M83 61h4v27h-4zm-8 26h4v5h-4z" fill="#018abe"/></g>
<text x="111" y="80" font-family="Segoe UI,Arial" font-size="12" letter-spacing="2" font-weight="700" fill="#001b48">SKYWORTH</text>
<text x="111" y="94" font-family="Segoe UI,Arial" font-size="8" letter-spacing="1.6" fill="#486174">LABEL SUITE</text>
<path d="M71 112h269" stroke="#d6e8ee"/>
<text x="71" y="135" font-family="Segoe UI,Arial" font-size="9" letter-spacing="1.4" fill="#486174">PRECISION IN EVERY DETAIL.</text>
<rect x="71" y="147" width="134" height="5" rx="2" fill="#97cadb"/><rect x="71" y="158" width="100" height="4" rx="2" fill="#d6e8ee"/>
<g fill="#001b48"><rect x="71" y="177" width="3" height="38"/><rect x="78" y="177" width="6" height="38"/><rect x="88" y="177" width="2" height="38"/><rect x="94" y="177" width="4" height="38"/><rect x="103" y="177" width="2" height="38"/><rect x="110" y="177" width="7" height="38"/><rect x="121" y="177" width="3" height="38"/><rect x="128" y="177" width="2" height="38"/><rect x="135" y="177" width="5" height="38"/><rect x="144" y="177" width="2" height="38"/><rect x="151" y="177" width="5" height="38"/><rect x="161" y="177" width="3" height="38"/><rect x="169" y="177" width="6" height="38"/><rect x="180" y="177" width="2" height="38"/><rect x="186" y="177" width="4" height="38"/><rect x="194" y="177" width="2" height="38"/><rect x="201" y="177" width="6" height="38"/><rect x="211" y="177" width="3" height="38"/><rect x="220" y="177" width="2" height="38"/><rect x="227" y="177" width="5" height="38"/></g>
<g fill="none" stroke="#02457a" stroke-width="4"><rect x="265" y="143" width="25" height="25"/><rect x="309" y="143" width="25" height="25"/><rect x="265" y="187" width="25" height="25"/></g>
<path d="M304 186h12v12h17v15h-13m-17-8v10m29-39v7m-39-41v16" fill="none" stroke="#02457a" stroke-width="5"/>
<path d="M71 232h269" stroke="#d6e8ee"/><text x="71" y="248" font-family="Segoe UI,Arial" font-size="8" letter-spacing="1.2" fill="#486174">ILLUSTRATIVE LABEL</text>
<rect x="253" y="237" width="171" height="41" rx="9" fill="#018abe"/>
<circle cx="275" cy="257" r="9" fill="#fff"/><path d="m271 257 3 3 5-6" stroke="#02457a" stroke-width="2" fill="none"/>
<text x="292" y="261" font-family="Segoe UI,Arial" font-size="11" font-weight="600" fill="white">Designed for precision</text>
</svg>